<svg width="2800" height="2800" viewBox="0 0 2800 2800" fill="none" xmlns="http://www.w3.org/2000/svg">
<rect width="2800" height="2800" fill="white"/>
<g clip-path="url(#clip0_36_7)">
<rect x="100" y="100" width="2600" height="2600" rx="1300" fill="url(#paint0_radial_36_7)"/>
<circle cx="1448" cy="886" r="600" fill="white"/>
<path fill-rule="evenodd" clip-rule="evenodd" d="M886.985 2984.35C914.429 2971.52 926.488 2950.54 930.231 2922.57C934.805 2892.65 931.478 2863.51 927.32 2834.37C924.825 2816.5 916.093 2805.23 895.717 2802.51C884.074 2801.34 872.431 2798.62 862.035 2792.41C848.729 2785.03 847.481 2771.43 859.956 2762.1C865.778 2757.44 873.262 2754.33 880.331 2751.22C888.648 2747.34 897.38 2745.01 905.697 2741.9C931.894 2731.8 944.785 2713.53 943.537 2686.73C943.121 2679.34 943.953 2671.96 943.537 2664.58C940.626 2617.95 937.716 2571.33 934.389 2524.7C933.141 2511.11 930.231 2497.9 926.904 2484.69C923.162 2470.7 915.677 2460.6 898.212 2458.65C885.321 2456.71 872.847 2452.05 860.372 2448.16C854.134 2445.83 848.729 2441.56 848.313 2434.95C847.481 2426.4 852.471 2420.58 860.372 2417.47C868.688 2414.36 877.836 2412.42 886.569 2410.09C898.628 2406.98 914.845 2415.14 923.162 2403.09C930.231 2392.6 925.657 2379 925.657 2366.57C923.578 2198.72 955.18 2035.92 1012.98 1877.4C1054.15 1762.78 1104.88 1651.66 1165.59 1545.2C1210.08 1467.11 1248.75 1385.51 1309.05 1315.96C1318.2 1305.86 1316.53 1300.03 1304.47 1292.26C1300.32 1289.54 1295.33 1287.6 1291.17 1284.49C1274.54 1272.45 1276.61 1259.24 1296.16 1251.08C1299.48 1249.52 1303.64 1248.36 1307.39 1247.97C1319.86 1247.58 1325.68 1240.59 1328.59 1229.71C1335.25 1205.23 1352.29 1189.3 1376.83 1179.59C1382.65 1177.64 1389.3 1175.7 1392.63 1169.49C1368.51 1124.8 1371.01 1108.87 1408.43 1073.9C1393.05 1053.7 1384.73 1031.17 1388.89 1005.52C1393.05 976.77 1402.19 949.573 1423.82 928.592C1440.03 912.662 1444.61 896.343 1444.19 875.362C1442.11 802.705 1442.11 730.049 1441.7 657.392C1441.7 647.679 1442.11 637.965 1443.78 628.252C1445.02 621.258 1457.5 617.373 1462.9 622.035C1467.06 625.532 1469.97 629.417 1473.3 633.303C1487.85 649.233 1505.73 657.781 1528.61 657.004C1536.64 656.745 1544.55 657.004 1552.31 657.781C1576.01 659.723 1599.3 663.22 1621.33 672.157C1651.69 683.813 1670.82 704.017 1677.47 734.323C1678.72 740.539 1679.55 746.367 1680.8 752.584C1686.62 781.724 1704.08 801.54 1734.44 811.253C1739.43 812.807 1744.42 813.584 1749.41 815.527C1801.39 833.4 1839.23 865.648 1862.51 913.05C1872.08 933.254 1881.23 953.458 1889.96 974.051C1890.37 975.216 1888.3 977.547 1886.63 978.713C1886.22 979.49 1883.72 978.713 1882.89 977.936C1879.56 974.439 1875.82 970.942 1872.49 967.057C1843.8 931.7 1808.46 905.668 1759.81 898.286C1749.41 896.731 1739.43 893.623 1729.45 890.515C1689.53 878.082 1655.43 858.655 1631.31 825.629C1626.32 818.247 1620.5 811.642 1614.27 805.037C1586.41 774.731 1551.06 762.297 1508.65 766.183C1500.88 766.96 1492.98 767.866 1484.94 768.902C1469.56 771.234 1467.06 772.788 1467.06 787.552C1466.65 820.578 1467.48 853.992 1467.48 887.407C1467.48 907.61 1471.22 925.483 1485.36 942.19C1499.5 958.898 1506.15 979.101 1510.72 1000.08C1515.44 1021.06 1513.08 1041.4 1503.66 1061.08C1500.33 1067.69 1492.43 1072.35 1495.76 1081.68C1535.26 1107.71 1526.94 1141.12 1507.4 1177.26C1542.33 1187.36 1567.28 1205.62 1574.76 1239.81C1576.01 1247.19 1582.66 1247.97 1588.9 1249.91C1600.96 1253.8 1617.59 1254.57 1620.09 1268.95C1623 1283.72 1608.03 1288.77 1597.22 1295.37C1583.08 1303.92 1582.66 1307.8 1593.47 1321.79C1605.53 1336.94 1619.26 1350.54 1628.82 1366.47C1714.9 1506.35 1794.32 1649.33 1856.69 1800.08C1934.45 1986.97 1978.53 2179.29 1975.2 2380.56C1974.79 2408.92 1972.29 2414.36 2009.72 2414.36C2022.61 2414.36 2035.91 2416.3 2046.73 2424.46C2055.46 2431.46 2055.04 2445.44 2044.65 2449.33C2032.59 2454.38 2019.7 2458.65 2007.22 2460.6C1984.77 2463.32 1975.62 2476.14 1972.29 2494.79C1970.63 2503.34 1968.13 2511.88 1967.72 2520.43C1963.98 2569.39 1959.4 2618.73 1958.15 2667.69C1956.49 2714.7 1950.67 2731.41 2020.53 2755.11C2026.35 2757.05 2032.59 2759.38 2037.99 2762.88C2054.21 2773.76 2053.38 2790.08 2035.91 2797.85C2026.35 2801.73 2015.95 2806.01 2005.97 2806.39C1983.94 2807.17 1976.45 2819.99 1973.96 2837.09C1969.38 2866.62 1966.06 2895.76 1970.63 2925.29C1973.96 2950.15 1983.52 2970.36 2006.39 2983.96C2011.38 2987.07 2018.87 2989.01 2015.12 2997.56C1635.89 2997.56 1256.24 2997.56 874.51 2997.56C877.421 2987.84 882.411 2986.68 886.985 2984.35ZM1076.6 2753.55C1178.48 2754.72 1279.94 2755.5 1381.4 2756.27C1450.01 2756.66 1518.63 2754.72 1586.82 2757.83C1669.99 2761.71 1753.15 2760.94 1835.9 2762.49C1854.2 2762.88 1872.49 2762.49 1893.29 2762.49C1885.8 2752.78 1877.9 2756.27 1871.25 2756.27C1637.97 2753.17 1404.69 2750.06 1171.41 2747.34C1121.51 2746.56 1071.2 2745.78 1021.3 2745.01C1040.01 2754.72 1058.72 2753.17 1076.6 2753.55ZM1893.29 2489.74C1613.43 2479.63 1333.17 2485.46 1052.07 2476.14C1054.15 2484.69 1059.55 2483.52 1063.71 2483.52C1212.16 2489.74 1361.03 2488.57 1509.89 2490.51C1625.49 2492.07 1741.51 2494.01 1857.11 2495.56C1871.25 2495.95 1885.8 2498.67 1901.19 2494.01C1897.86 2492.07 1895.78 2489.74 1893.29 2489.74ZM1938.19 2452.83C1941.52 2452.83 1944.85 2450.88 1949.84 2449.33C1907.84 2443.5 1383.9 2441.17 1011.73 2444.67C1004.25 2444.67 996.763 2445.83 989.278 2446.22C1305.72 2452.44 1622.17 2452.83 1938.19 2452.83ZM1086.58 2806.39C1194.7 2809.89 1302.4 2808.73 1410.51 2802.9C1453.76 2800.57 1497.42 2800.57 1540.66 2802.9C1651.27 2808.34 1761.88 2808.73 1873.33 2807.95C1867.92 2799.01 1860.02 2802.9 1853.78 2802.9C1731.53 2799.79 1608.86 2796.68 1486.61 2795.13C1441.7 2794.35 1397.2 2796.29 1352.29 2798.24C1265.25 2801.6 1178.34 2802.12 1091.57 2799.79C1085.33 2799.79 1078.68 2797.07 1072.86 2801.73C1075.77 2807.56 1081.59 2806.39 1086.58 2806.39ZM1331.09 1277.5C1400.67 1277.5 1470.39 1277.37 1540.25 1277.11C1548.98 1277.11 1558.13 1276.33 1575.18 1275.56C1536.09 1268.56 1362.27 1268.56 1325.27 1274C1326.93 1275.17 1329.01 1277.5 1331.09 1277.5ZM1391.8 1303.53C1384.31 1303.53 1376.83 1305.86 1360.61 1308.97C1398.87 1312.08 1516.55 1307.8 1543.58 1301.98C1488.27 1298.48 1440.03 1302.36 1391.8 1303.53ZM1435.88 1248.75C1436.71 1249.52 1437.96 1251.47 1438.79 1251.08C1452.51 1249.91 1466.65 1248.36 1485.78 1246.42C1455.84 1240.59 1455.84 1240.59 1435.88 1248.75Z" fill="#A75E0F"/>
</g>
<defs>
<radialGradient id="paint0_radial_36_7" cx="0" cy="0" r="1" gradientUnits="userSpaceOnUse" gradientTransform="translate(1450.56 543.444) rotate(91.3429) scale(2157.15)">
<stop stop-color="#FFDC43"/>
<stop offset="1" stop-color="#FF9721"/>
</radialGradient>
<clipPath id="clip0_36_7">
<rect x="100" y="100" width="2600" height="2600" rx="1300" fill="white"/>
</clipPath>
</defs>
</svg>
